# AST/ASF file generated using VICON BodyLanguage
# -----------------------------------------------
:version 1.10
:name VICON
:units
  mass 1.0
  length 0.45
  angle deg
:documentation
   .ast/.asf automatically generated from VICON data using
   VICON BodyBuilder and BodyLanguage model FoxedUp or BRILLIANT.MOD
:root
   order TX TY TZ RX RY RZ
   axis XYZ
   position 0 0 0  
   orientation 0 0 0 
:bonedata
  begin
     id 1 
     name lhipjoint
     direction 0.623415 -0.642378 0.445763 
     length 2.49859 
     axis 0 0 0  XYZ
  end
  begin
     id 2 
     name lfemur
     direction 0.34202 -0.939693 0  
     length 6.69689  
     axis 0 0 20  XYZ
    dof rx ry rz
    limits (-160.0 20.0)
           (-70.0 70.0)
           (-60.0 70.0)
  end
  begin
     id 3 
     name ltibia
     direction 0.34202 -0.939693 0   
     length 7.37574   
     axis 0 0 20   XYZ
    dof rx
    limits (-10.0 170.0)
  end
  begin
     id 4 
     name lfoot
     direction 0.084323 -0.231675 0.969132   
     length 2.09111   
     axis -90 7.62852e-016 20   XYZ
    dof rx rz
    limits (-45.0 90.0)
           (-70.0 20.0)
  end
  begin
     id 5 
     name ltoes
     direction 1.5357e-011 -4.21957e-011 1   
     length 1.04989   
     axis -90 7.62852e-016 20   XYZ
    dof rx
    limits (-90.0 20.0)
  end
  begin
     id 6 
     name rhipjoint
     direction -0.605402 -0.653903 0.45376   
     length 2.45455  
     axis 0 0 0  XYZ 
  end
  begin
     id 7 
     name rfemur
     direction -0.34202 -0.939693 0   
     length 6.64523   
     axis 0 0 -20   XYZ
    dof rx ry rz
    limits (-160.0 20.0)
           (-70.0 70.0)
           (-70.0 60.0)
  end
  begin
     id 8 
     name rtibia
     direction -0.34202 -0.939693 0   
     length 7.3339   
     axis 0 0 -20   XYZ
    dof rx
    limits (-10.0 170.0)
 end
 begin
     id 9 
     name rfoot
     direction -0.120854 -0.332043 0.93549   
     length 2.23135  
     axis -90 -7.62852e-016 -20   XYZ
    dof rx rz
    limits (-45.0 90.0)
           (-20.0 70.0)
  end
  begin
     id 10 
     name rtoes
     direction -1.53563e-011 -4.21914e-011 1   
     length 1.10614   
     axis -90 -7.62852e-016 -20   XYZ
    dof rx
    limits (-90.0 20.0)
  end
  begin
     id 11 
     name lowerback
     direction 0.0319682 0.998615 -0.0417941   
     length 2.02718   
     axis 0 0 0   XYZ
    dof rx ry rz
    limits (-20.0 45.0)
           (-30.0 30.0)
           (-30.0 30.0)
  end
  begin
     id 12 
     name upperback
     direction 7.63181e-005 0.995808 0.0914691   
     length 1.97539   
     axis 0 0 0   XYZ
    dof rx ry rz
    limits (-20.0 45.0)
           (-30.0 30.0)
           (-30.0 30.0)
  end
  begin
     id 13 
     name thorax
     direction -0.016423 0.993627 0.111514   
     length 2.00349   
     axis 0 0 0   XYZ
    dof rx ry rz
    limits (-20.0 45.0)
           (-30.0 30.0)
           (-30.0 30.0)
  end
  begin
     id 14 
     name lowerneck
     direction -0.174763 0.981668 -0.0760716   
     length 1.71436   
     axis 0 0 0   XYZ
    dof rx ry rz
    limits (-20.0 45.0)
           (-30.0 30.0)
           (-30.0 30.0)
  end
  begin
     id 15 
     name upperneck
     direction 0.345458 0.934587 -0.0848868   
     length 1.72805   
     axis 0 0 0   XYZ
    dof rx ry rz
    limits (-20.0 45.0)
           (-30.0 30.0)
           (-30.0 30.0)
  end
  begin
     id 16
     name head
     direction 0.13001 0.989848 -0.0574291  
     length 1.767  
     axis 0 0 0   XYZ
    dof rx ry rz
    limits (-20.0 45.0)
           (-30.0 30.0)
           (-30.0 30.0)
  end
  begin
     id 17 
     name lclavicle
     direction 0.952951 0.290122 0.0878234  
     length 3.54654  
     axis 0 0 0   XYZ
    dof ry rz
    limits (-20.0 10.0)
           (0.0 20.0)
  end
  begin
     id 18 
     name lhumerus
     direction 1 -4.48957e-011 -4.56525e-028   
     length 5.19807   
     axis 180 -30 -90   XYZ
    dof rx ry rz
    limits (-60.0 90.0)
           (-90.0 90.0)
           (-90.0 90.0)
  end
  begin
     id 19
     name lradius
     direction 1 -4.48979e-011 -2.0317e-027   
     length 3.0937   
     axis 180 -30 -90   XYZ
    dof rx
    limits (-10.0 170.0)
  end
  begin
     id 20
     name lwrist
     direction 1 -4.48953e-011 -3.05809e-027   
     length 1.54685   
     axis 8.48514e-016 90 90   XYZ
    dof ry
    limits (-180.0 0.0)
 end
  begin
     id 21 
     name lhand
     direction 1 -4.48952e-011 -6.11639e-027   
     length 0.672632   
     axis 3.9013e-015 90 90   XYZ
    dof rx rz
    limits (-90.0 90.0)
           (-45.0 45.0)
  end
  begin
     id 22 
     name lfingers
     direction 1 -4.48925e-011 -1.22426e-026   
     length 0.542293   
     axis 7.80276e-015 90 90   XYZ
    dof rx
    limits (0.0 90.0)
  end
  begin
     id 23
     name lthumb
     direction 0.707107 -6.3486e-011 0.707107   
     length 0.778628   
     axis -90 45 5.37419e-014   XYZ
    dof rx rz
    limits (-45.0 45.0)
           (-45.0 45.0)
  end
  begin
     id 24 
     name rclavicle
     direction -0.960732 0.273675 -0.0457849   
     length 3.52079  
     axis 0 0 0   XYZ 
    dof ry rz
    limits (-10.0 20.0)
           (-20.0 0.0)
  end
  begin
     id 25 
     name rhumerus
     direction -1 -4.48976e-011 -1.63613e-027  
     length 5.45222   
     axis 180 30 90   XYZ
    dof rx ry rz
    limits (-90.0 60.0)
           (-90.0 90.0)
           (-90.0 90.0)
  end
  begin
     id 26 
     name rradius
     direction -1 -4.48957e-011 -7.00033e-028   
     length 3.01284   
     axis 180 30 90   XYZ
    dof rx
    limits (-10.0 170.0)
  end
  begin
     id 27 
     name rwrist
     direction -1 -4.48983e-011 -3.05543e-027   
     length 1.50642   
     axis 8.48514e-016 -90 -90   XYZ
    dof ry
    limits (-180.0 0.0)
  end
  begin
     id 28
     name rhand
     direction -1 -4.48984e-011 -6.11072e-027   
     length 0.622296   
     axis 3.9013e-015 -90 -90   XYZ
    dof rx rz
    limits (-90.0 90.0)
           (-45.0 45.0)
  end
  begin
     id 29
     name rfingers
     direction -1 -4.48865e-011 -1.22637e-026   
     length 0.501711   
     axis 7.80276e-015 -90 -90   XYZ
    dof rx
    limits (0.0 90.0)
  end
  begin
     id 30
     name rthumb
     direction -0.707107 -6.34932e-011 0.707107   
     length 0.72036   
     axis -90 -45 -5.37419e-014   XYZ
    dof rx rz
    limits (-45.0 45.0)
           (-45.0 45.0)
  end
:hierarchy
  begin
    root lhipjoint rhipjoint lowerback
    lhipjoint lfemur
    lfemur ltibia
    ltibia lfoot
    lfoot ltoes
    rhipjoint rfemur
    rfemur rtibia
    rtibia rfoot
    rfoot rtoes
    lowerback upperback
    upperback thorax
    thorax lowerneck lclavicle rclavicle
    lowerneck upperneck
    upperneck head
    lclavicle lhumerus
    lhumerus lradius
    lradius lwrist
    lwrist lhand lthumb
    lhand lfingers
    rclavicle rhumerus
    rhumerus rradius
    rradius rwrist
    rwrist rhand rthumb
    rhand rfingers
  end

#!OML:ASF H:\Not Pregnant\Project 1\Capture day 1\Session 1\non-pregnant.ASF
:FULLY-SPECIFIED
:DEGREES
311
root 6.19853 15.9997 11.2075 21.4448 -37.6487 -10.2529
lowerback -1.96586 0.151858 8.1299
upperback -7.72179 0.414644 3.01374
thorax -6.98898 -0.248992 -1.37843
lowerneck 6.11559 -1.89478 -30.6541
upperneck 2.28267 -5.73702 39.839
head 1.73417 -3.66763 21.2836
rclavicle -1.53499e-014 -3.00165e-014
rhumerus -14.4565 -43.3515 -32.7293
rradius 135.691
rwrist 12.8008
rhand -27.2646 -3.72747
rfingers 7.12502
rthumb -0.675679 -33.7061
lclavicle -1.53499e-014 -3.00165e-014
lhumerus -50.5503 -2.58108 92.5957
lradius 51.5264
lwrist 52.8291
lhand -28.1007 -13.0606
lfingers 7.12502
lthumb -1.48314 16.914
rfemur 5.92453 13.3581 24.4526
rtibia -3.18055e-014
rfoot -16.3678 -8.20234
rtoes -25.98
lfemur -42.9537 6.04269 -7.50922
ltibia 39.6239
lfoot -6.97047 6.24718
ltoes -21.3798
312
root 6.19508 15.9941 11.2421 21.4065 -37.1599 -10.1232
lowerback -2.07255 0.136977 7.99515
upperback -7.85202 0.39273 3.13053
thorax -7.07024 -0.253643 -1.17803
lowerneck 6.37426 -1.95554 -30.7097
upperneck 2.24405 -5.88704 39.7189
head 1.73359 -3.7631 21.2155
rclavicle -7.11339e-014 -4.4329e-014
rhumerus -13.8448 -44.0065 -33.8095
rradius 136.084
rwrist 12.8124
rhand -30.2477 -4.87811
rfingers 7.12502
rthumb -3.5567 -34.8282
lclavicle -7.11339e-014 -4.4329e-014
lhumerus -50.5513 -3.45795 93.3398
lradius 51.2872
lwrist 52.5007
lhand -27.8976 -13.0117
lfingers 7.12502
lthumb -1.28705 16.9641
rfemur 6.04507 13.0803 24.4719
rtibia 1.59028e-014
rfoot -16.2956 -8.41913
rtoes -26.6576
lfemur -43.2118 5.7112 -7.61136
ltibia 39.8707
lfoot -7.10599 6.10595
ltoes -21.4546
313
root 6.19162 15.9883 11.2788 21.3531 -36.6643 -9.98933
lowerback -2.1584 0.134068 7.84162
upperback -7.98595 0.389369 3.24371
thorax -7.1659 -0.248045 -0.971611
lowerneck 6.6455 -2.03046 -30.7616
upperneck 2.19889 -6.06081 39.5951
head 1.73877 -3.87163 21.143
rclavicle 6.48535e-015 -1.15295e-014
rhumerus -13.1901 -44.6391 -34.9028
rradius 136.508
rwrist 12.7346
rhand -32.9735 -5.96511
rfingers 7.12502
rthumb -6.18866 -35.8547
lclavicle 6.48535e-015 -1.15295e-014
lhumerus -50.5619 -4.41895 94.1477
lradius 51.0843
lwrist 52.2484
lhand -27.7113 -13.2854
lfingers 7.12502
lthumb -1.10707 16.6915
rfemur 6.18392 12.7942 24.4859
rtibia 3.81667e-014
rfoot -16.2003 -8.6107
rtoes -27.3798
lfemur -43.4527 5.38013 -7.72219
ltibia 40.1121
lfoot -7.23358 5.95275
ltoes -21.5526
314
root 6.18806 15.9825 11.3176 21.266 -36.1536 -9.82515
lowerback -2.22255 0.137597 7.65274
upperback -8.12345 0.396651 3.34669
thorax -7.27692 -0.235129 -0.756609
lowerneck 6.9341 -2.11694 -30.8097
upperneck 2.14283 -6.25498 39.4736
head 1.74637 -3.99215 21.0705
rclavicle 6.1586e-014 -4.77083e-015
rhumerus -12.5067 -45.2539 -35.9915
rradius 136.96
rwrist 12.5572
rhand -35.4534 -6.85092
rfingers 7.12502
rthumb -8.58234 -36.6565
lclavicle 6.1586e-014 -4.77083e-015
lhumerus -50.5856 -5.44154 94.9965
lradius 50.9285
lwrist 52.0325
lhand -27.5382 -13.7992
lfingers 7.12502
lthumb -0.93994 16.1785
rfemur 6.34632 12.4842 24.4746
rtibia -3.18055e-015
rfoot -16.0865 -8.77446
rtoes -28.1364
lfemur -43.67 5.03988 -7.86714
ltibia 40.3402
lfoot -7.35523 5.78411
ltoes -21.6796
315
root 6.18432 15.9767 11.3585 21.1498 -35.6249 -9.64478
lowerback -2.26063 0.145502 7.43727
upperback -8.26416 0.412589 3.44558
thorax -7.40602 -0.216149 -0.531274
lowerneck 7.24045 -2.21311 -30.8587
upperneck 2.07716 -6.46738 39.3536
head 1.75581 -4.12354 20.999
rclavicle -2.27236e-014 -5.1684e-014
rhumerus -11.7933 -45.8607 -37.0842
rradius 137.432
rwrist 12.3065
rhand -37.6623 -7.38472
rfingers 7.12502
rthumb -10.7136 -37.0915
lclavicle -2.27236e-014 -5.1684e-014
lhumerus -50.6309 -6.47774 95.8661
lradius 50.832
lwrist 51.8282
lhand -27.3786 -14.5042
lfingers 7.12502
lthumb -0.785737 15.4741
rfemur 6.53714 12.1515 24.452
rtibia -3.18055e-015
rfoot -15.9533 -8.90557
rtoes -28.9242
lfemur -43.8561 4.69067 -8.03096
ltibia 40.5501
lfoot -7.4725 5.60026
ltoes -21.8291
316
root 6.18037 15.9708 11.401 21.0109 -35.0648 -9.45253
lowerback -2.27574 0.153084 7.19883
upperback -8.4089 0.430582 3.54247
thorax -7.55304 -0.194389 -0.295081
lowerneck 7.56574 -2.31661 -30.908
upperneck 1.99951 -6.69409 39.2357
head 1.76454 -4.26387 20.9287
rclavicle -4.5149e-014 -4.01545e-014
rhumerus -11.0509 -46.4759 -38.19
rradius 137.916
rwrist 12.0317
rhand -39.6251 -7.56716
rfingers 7.12502
rthumb -12.6064 -37.1668
lclavicle -4.5149e-014 -4.01545e-014
lhumerus -50.6645 -7.48253 96.693
lradius 50.7735
lwrist 51.45
lhand -27.104 -14.9431
lfingers 7.12502
lthumb -0.520549 15.036
rfemur 6.75306 11.7848 24.4259
rtibia -3.49861e-014
rfoot -15.8007 -9.00276
rtoes -29.7432
lfemur -44.0162 4.3255 -8.20499
ltibia 40.7383
lfoot -7.58877 5.39469
ltoes -22.0235
317
root 6.17623 15.9649 11.4461 20.8425 -34.4624 -9.24093
lowerback -2.27742 0.158495 6.94555
upperback -8.55665 0.446843 3.6326
thorax -7.71174 -0.172114 -0.0573816
lowerneck 7.92184 -2.42498 -30.9594
upperneck 1.90325 -6.9335 39.1227
head 1.76801 -4.41349 20.8625
rclavicle 2.7159e-014 8.74653e-015
rhumerus -10.2977 -47.1062 -39.2941
rradius 138.406
rwrist 11.7934
rhand -41.3475 -7.39797
rfingers 7.12502
rthumb -14.2665 -36.8879
lclavicle 2.7159e-014 8.74653e-015
lhumerus -50.6914 -8.46347 97.4819
lradius 50.7529
lwrist 50.9235
lhand -26.7236 -15.1392
lfingers 7.12502
lthumb -0.153139 14.8405
rfemur 7.00145 11.3719 24.3895
rtibia 3.18055e-015
rfoot -15.6372 -9.06606
rtoes -30.5688
lfemur -44.1438 3.91606 -8.38888
ltibia 40.9051
lfoot -7.71387 5.17908
ltoes -22.2737
318
root 6.17182 15.9586 11.4936 20.6617 -33.8119 -9.03562
lowerback -2.2718 0.161739 6.6979
upperback -8.70305 0.461064 3.72188
thorax -7.87412 -0.150336 0.176668
lowerneck 8.30325 -2.53912 -31.0129
upperneck 1.78433 -7.18454 39.0158
head 1.76596 -4.57138 20.8007
rclavicle 1.32937e-014 -2.38542e-014
rhumerus -9.51602 -47.7646 -40.4188
rradius 138.891
rwrist 11.6676
rhand -42.8434 -6.97132
rfingers 7.12502
rthumb -15.7075 -36.3538
lclavicle 1.32937e-014 -2.38542e-014
lhumerus -50.7063 -9.43952 98.2498
lradius 50.7598
lwrist 50.3316
lhand -26.2584 -15.1736
lfingers 7.12502
lthumb 0.296185 14.806
rfemur 7.28 10.9148 24.3672
rtibia -3.18055e-015
rfoot -15.4632 -9.09878
rtoes -31.4029
lfemur -44.2409 3.45473 -8.54954
ltibia 41.0527
lfoot -7.85459 4.95688
ltoes -22.5928
319
root 6.16726 15.952 11.5438 20.4751 -33.1058 -8.83867
lowerback -2.26843 0.16557 6.46737
upperback -8.84727 0.475964 3.80603
thorax -8.03364 -0.128563 0.396035
lowerneck 8.70733 -2.66352 -31.0626
upperneck 1.63931 -7.45195 38.915
head 1.7599 -4.73969 20.7414
rclavicle 5.889e-015 -1.07344e-014
rhumerus -8.70991 -48.4685 -41.5606
rradius 139.365
rwrist 11.7192
rhand -44.129 -6.4245
rfingers 7.12502
rthumb -16.9454 -35.7053
lclavicle 5.889e-015 -1.07344e-014
lhumerus -50.7145 -10.4303 99.0147
lradius 50.7947
lwrist 49.7496
lhand -25.7375 -15.1342
lfingers 7.12502
lthumb 0.799255 14.8441
rfemur 7.5851 10.4075 24.3598
rtibia -6.36111e-015
rfoot -15.2881 -9.10245
rtoes -32.2155
lfemur -44.315 2.93909 -8.68425
ltibia 41.1848
lfoot -8.02031 4.72085
ltoes -23.0041
